<?xml version="1.0" encoding="UTF-8"?>
<svg width="15px" height="15px" viewBox="0 0 15 15" version="1.1" xmlns="http://www.w3.org/2000/svg" xmlns:xlink="http://www.w3.org/1999/xlink">
    <!-- Generator: Sketch 47.1 (45422) - http://www.bohemiancoding.com/sketch -->
    <title>ic_cancel</title>
    <desc>Created with Sketch.</desc>
    <defs></defs>
    <g id="Page-1" stroke="none" stroke-width="1" fill="none" fill-rule="evenodd">
        <g id="bag" transform="translate(-1160.000000, -86.000000)" fill="#000000">
            <g id="item1" transform="translate(809.000000, 73.000000)">
                <path d="M365.869589,27.2296073 L359.135337,20.5226586 L365.824392,13.81571 C366.005178,13.6344411 366.005178,13.3625378 365.824392,13.1812689 C365.643607,13 365.372429,13 365.191644,13.1812689 L358.502589,19.8882175 L351.813534,13.1359517 C351.632748,12.9546828 351.361571,12.9546828 351.180785,13.1359517 C351,13.3172205 351,13.5891239 351.180785,13.7703927 L357.86984,20.5226586 L351.135589,27.2296073 C350.954804,27.4108761 350.954804,27.6827795 351.135589,27.8640483 C351.316374,28.0453172 351.587552,28.0453172 351.768337,27.8640483 L358.502589,21.1570997 L365.191644,27.8640483 C365.372429,28.0453172 365.643607,28.0453172 365.824392,27.8640483 C366.050374,27.6827795 366.050374,27.4561934 365.869589,27.2296073" id="ic_cancel"></path>
            </g>
        </g>
    </g>
</svg>